<svg version="1.2" xmlns="http://www.w3.org/2000/svg" viewBox="0 0 512 512" width="512" height="512">
	<title>Instagram_simple_icon-svg</title>
	<style>
		.s0 { fill: #8d8d8d } 
		.s1 { fill: #959393 } 
		.s2 { fill: #737373 } 
	</style>
	<path id="Layer" fill-rule="evenodd" class="s0" d="m359.9 5.6c26.8 1.2 45.1 5.5 61.1 11.7q6.3 2.4 12.3 5.4 6 3 11.6 6.7 5.6 3.7 10.8 7.9 5.2 4.3 9.9 9.1 4.8 4.7 9.1 9.9 4.2 5.2 7.9 10.8 3.7 5.6 6.7 11.6 3 6 5.4 12.3c6.2 16 10.5 34.3 11.7 61.1 1.2 26.9 1.5 35.5 1.5 103.9 0 68.4-0.3 77-1.5 103.9-1.2 26.8-5.5 45.1-11.7 61.1-3.2 8.4-7.3 16.3-12.2 23.8-4.9 7.5-10.5 14.5-16.9 20.8-6.3 6.4-13.3 12-20.8 16.9-7.4 4.9-15.4 9-23.8 12.2-16 6.2-34.3 10.5-61.1 11.7-26.9 1.2-35.5 1.5-103.9 1.5-68.4 0-77-0.3-103.9-1.5-26.8-1.2-45.1-5.5-61.1-11.7q-6.3-2.4-12.3-5.4-6-3-11.6-6.7-5.6-3.7-10.8-7.9-5.2-4.3-9.9-9.1-4.8-4.7-9.1-9.9-4.2-5.2-7.9-10.8-3.7-5.6-6.7-11.6-3-6-5.4-12.3c-6.2-16-10.5-34.3-11.7-61.1-1.2-26.9-1.5-35.5-1.5-103.9 0-68.4 0.3-77 1.5-103.9 1.2-26.8 5.5-45.1 11.7-61.1q2.4-6.3 5.4-12.3 3-6 6.7-11.6 3.7-5.6 7.9-10.8 4.3-5.2 9.1-9.9 4.7-4.8 9.9-9.1 5.2-4.2 10.8-7.9 5.6-3.7 11.6-6.7 6-3 12.3-5.4c16-6.2 34.3-10.5 61.1-11.7 26.9-1.2 35.5-1.5 103.9-1.5 68.4 0 77 0.3 103.9 1.5zm-205.7 45.3c-24.6 1.2-37.9 5.3-46.8 8.7q-4.1 1.5-8 3.5-3.9 1.9-7.5 4.3-3.7 2.4-7 5.2-3.4 2.7-6.4 5.9-3.2 3-5.9 6.4-2.8 3.3-5.2 7-2.4 3.6-4.3 7.5-2 3.9-3.5 8c-3.4 8.9-7.5 22.2-8.7 46.8-1.2 26.6-1.4 34.5-1.4 101.8 0 67.3 0.2 75.2 1.4 101.8 1.2 24.6 5.3 37.9 8.7 46.8q1.5 4.1 3.5 8 1.9 3.9 4.3 7.5 2.4 3.7 5.2 7 2.7 3.4 5.9 6.4 3 3.2 6.4 5.9 3.3 2.8 7 5.2 3.6 2.4 7.5 4.3 3.9 2 8 3.5c8.9 3.4 22.2 7.5 46.8 8.7 26.6 1.2 34.5 1.4 101.8 1.4 67.3 0 75.2-0.2 101.8-1.4 24.6-1.2 37.9-5.3 46.8-8.7 5.4-2.1 10.6-4.7 15.4-7.9 4.9-3.2 9.4-6.8 13.5-11 4.2-4.1 7.8-8.6 11-13.4 3.1-4.9 5.8-10.1 7.9-15.5 3.4-8.9 7.5-22.2 8.7-46.8 1.2-26.6 1.4-34.5 1.4-101.8 0-67.3-0.2-75.2-1.4-101.8-1.2-24.6-5.3-37.9-8.7-46.8q-1.5-4.1-3.5-8-1.9-3.9-4.3-7.5-2.4-3.7-5.2-7-2.7-3.4-5.9-6.4-3-3.2-6.4-5.9-3.3-2.8-7-5.2-3.6-2.4-7.5-4.3-3.9-2-8-3.5c-8.9-3.4-22.2-7.5-46.8-8.7-26.6-1.2-34.5-1.4-101.8-1.4-67.3 0-75.2 0.2-101.8 1.4z"/>
	<path id="Layer" fill-rule="evenodd" class="s1" d="m305.5 136.5c15.7 6.5 30 16 42 28 12 12 21.5 26.3 28 42 6.5 15.7 9.9 32.5 9.9 49.5 0 52.3-31.6 99.5-79.9 119.5-48.3 20-104 9-141-28-37-37-48-92.7-28-141 20-48.3 67.2-79.9 119.5-79.9 17 0 33.8 3.4 49.5 9.9zm-17.4 197.1c10.2-4.2 19.5-10.4 27.3-18.2 7.8-7.8 14-17.1 18.2-27.3 4.2-10.2 6.4-21.1 6.4-32.1 0-34-20.5-64.6-51.9-77.6-31.3-13-67.5-5.8-91.5 18.2-24 24-31.2 60.2-18.2 91.5 13 31.4 43.6 51.9 77.6 51.9 11 0 21.9-2.2 32.1-6.4z"/>
	<path id="Layer" class="s2" d="m390.5 151.8c-16.7 0-30.3-13.6-30.3-30.3 0-16.7 13.6-30.2 30.3-30.2 16.7 0 30.2 13.5 30.2 30.2 0 16.7-13.5 30.3-30.2 30.3z"/>
</svg>