<svg version="1.2" xmlns="http://www.w3.org/2000/svg" viewBox="0 0 512 512" width="512" height="512">
	<title>water-svgrepo-com-svg</title>
	<style>
		.s0 { fill: #203bf0 } 
		.s1 { fill: #2842ec } 
		.s2 { fill: #304af2 } 
		.s3 { fill: #1934e8 } 
		.s4 { fill: #203bf7 } 
	</style>
	<g id="Layer">
		<g id="Layer">
			<g id="Layer">
				<path id="Layer" fill-rule="evenodd" class="s0" d="m303.3 247.5c0 79.8-65 144.8-144.9 144.8-79.8 0-144.8-65-144.8-144.8 0-65.6 95.2-193.9 135.1-242.9 5-6.1 14.4-6.1 19.5 0 39.5 48.4 135.1 177.3 135.1 242.9zm-25.2 0c0-51.7-78.9-163-119.7-214.8-40.7 51.8-119.7 163.1-119.7 214.8 0 66 53.7 119.7 119.7 119.7 66.1 0 119.8-53.7 119.8-119.7z"/>
				<path id="Layer" class="s1" d="m141.1 120c-5.8-3.8-13.6-2.3-17.4 3.5-26 39-43.9 71.5-53.3 96.8-2.4 6.5 0.9 13.7 7.4 16.1 6.5 2.4 13.7-0.9 16.2-7.4 5.9-16.1 19.6-45.1 50.6-91.5 3.8-5.8 2.3-13.6-3.5-17.5z"/>
				<path id="Layer" class="s2" d="m135.1 312.9c-15.7-5.6-28.9-16.8-37.2-31.4-3.4-6-11.1-8.2-17.1-4.7-6 3.4-8.2 11-4.8 17.1 11.3 19.8 29.3 35 50.7 42.7 6.5 2.3 13.7-1.1 16-7.6 2.4-6.6-1-13.7-7.6-16.1z"/>
				<path id="Layer" fill-rule="evenodd" class="s3" d="m498.4 413.2c0 54.5-44.3 98.8-98.8 98.8-54.5 0-98.8-44.3-98.8-98.8 0-50.6 79.9-150 89.1-161.1 5-6.2 14.4-6.2 19.4 0 9.1 11.1 89.1 110.5 89.1 161.1zm-25.1 0c0-33.4-53.4-106.5-73.7-132.9-20.2 26.3-73.7 99.5-73.7 132.9 0 40.6 33.1 73.7 73.7 73.7 40.6 0 73.7-33.1 73.7-73.7z"/>
				<path id="Layer" class="s4" d="m384.9 351.4c-5.9-3.6-13.6-1.7-17.2 4.2-16 26.6-21.9 42.3-24 50.8-1.7 6.8 2.4 13.6 9.2 15.2 6.7 1.7 13.5-2.4 15.2-9.2 1.1-4.5 5.4-17.7 21.1-43.8 3.6-5.9 1.7-13.6-4.3-17.2z"/>
			</g>
		</g>
	</g>
</svg>